<svg width="18" height="18" viewBox="0 0 18 18" fill="none" xmlns="http://www.w3.org/2000/svg">
<path d="M16.3976 3.9593C16.3184 3.86445 16.2194 3.78815 16.1075 3.73579C15.9956 3.68342 15.8735 3.65627 15.75 3.65625H4.64062L4.25602 1.53633C4.22063 1.34204 4.11822 1.16632 3.96661 1.03976C3.81501 0.91321 3.62381 0.843846 3.42633 0.84375H1.6875C1.46372 0.84375 1.24911 0.932645 1.09088 1.09088C0.932645 1.24911 0.84375 1.46372 0.84375 1.6875C0.84375 1.91128 0.932645 2.12589 1.09088 2.28412C1.24911 2.44236 1.46372 2.53125 1.6875 2.53125H2.7218L4.47328 12.1641C4.52031 12.4199 4.61757 12.6639 4.75945 12.882C4.50826 13.1759 4.33704 13.5296 4.26231 13.9089C4.18759 14.2882 4.21187 14.6804 4.33283 15.0477C4.45378 15.4149 4.66732 15.7447 4.95286 16.0054C5.23839 16.2661 5.58628 16.4488 5.96297 16.5359C6.33966 16.623 6.73245 16.6116 7.10343 16.5027C7.47442 16.3939 7.8111 16.1912 8.08099 15.9144C8.35088 15.6375 8.54488 15.2958 8.64427 14.9222C8.74366 14.5485 8.7451 14.1556 8.64844 13.7812H11.0391C10.9218 14.2355 10.9494 14.7152 11.1182 15.153C11.2869 15.5908 11.5883 15.9649 11.9802 16.2229C12.372 16.481 12.8348 16.61 13.3036 16.5921C13.7725 16.5742 14.224 16.4101 14.595 16.1229C14.966 15.8356 15.2379 15.4396 15.3727 14.9902C15.5076 14.5408 15.4985 14.0605 15.3468 13.6165C15.1952 13.1725 14.9085 12.787 14.5269 12.5139C14.1453 12.2409 13.6879 12.094 13.2187 12.0938H6.41039C6.34464 12.0937 6.28099 12.0706 6.2305 12.0284C6.18002 11.9863 6.1459 11.9278 6.13406 11.8631L5.97094 10.9688H13.7883C14.2494 10.9688 14.696 10.8069 15.05 10.5113C15.404 10.2158 15.643 9.80532 15.7254 9.35156L16.5804 4.65047C16.6024 4.5289 16.5974 4.40399 16.5658 4.28456C16.5342 4.16513 16.4768 4.0541 16.3976 3.9593ZM7.03125 14.3438C7.03125 14.455 6.99826 14.5638 6.93645 14.6563C6.87464 14.7488 6.78679 14.8209 6.68401 14.8634C6.58123 14.906 6.46813 14.9171 6.35901 14.8954C6.2499 14.8737 6.14967 14.8202 6.071 14.7415C5.99233 14.6628 5.93876 14.5626 5.91706 14.4535C5.89535 14.3444 5.90649 14.2313 5.94907 14.1285C5.99164 14.0257 6.06374 13.9379 6.15624 13.876C6.24874 13.8142 6.3575 13.7812 6.46875 13.7812C6.61793 13.7812 6.76101 13.8405 6.8665 13.946C6.97199 14.0515 7.03125 14.1946 7.03125 14.3438ZM13.2187 14.9062C13.1075 14.9062 12.9987 14.8733 12.9062 14.8115C12.8137 14.7496 12.7416 14.6618 12.6991 14.559C12.6565 14.4562 12.6454 14.3431 12.6671 14.234C12.6888 14.1249 12.7423 14.0247 12.821 13.946C12.8997 13.8673 12.9999 13.8138 13.109 13.7921C13.2181 13.7704 13.3312 13.7815 13.434 13.8241C13.5368 13.8666 13.6246 13.9387 13.6865 14.0312C13.7483 14.1237 13.7812 14.2325 13.7812 14.3438C13.7812 14.4929 13.722 14.636 13.6165 14.7415C13.511 14.847 13.3679 14.9062 13.2187 14.9062ZM14.0625 9.05062C14.0507 9.11495 14.0169 9.17317 13.9669 9.21526C13.9168 9.25735 13.8537 9.28068 13.7883 9.28125H5.66437L4.94859 5.34375H14.7389L14.0625 9.05062Z" fill="white"/>
</svg>
